<?xml version="1.0" standalone="no"?>
<!DOCTYPE svg PUBLIC "-//W3C//DTD SVG 20010904//EN"
 "http://www.w3.org/TR/2001/REC-SVG-20010904/DTD/svg10.dtd">
<svg version="1.0" xmlns="http://www.w3.org/2000/svg"
 width="1000.000000pt" height="1000.000000pt" viewBox="0 0 1000.000000 1000.000000"
 preserveAspectRatio="xMidYMid meet">
<metadata>
Created by potrace 1.14, written by Peter Selinger 2001-2017
</metadata>
<g transform="translate(0.000000,1000.000000) scale(0.100000,-0.100000)"
fill="#000000" stroke="none">
<path d="M6154 9448 c-19 -10 -34 -15 -34 -12 0 4 -7 1 -15 -6 -8 -7 -12 -17
-8 -23 4 -6 -4 -8 -21 -5 -19 4 -26 1 -26 -11 0 -11 -10 -17 -31 -18 -17 -1
-39 -12 -50 -24 -13 -15 -19 -17 -19 -8 -1 10 -5 8 -16 -6 -16 -21 -17 -22
-64 -24 -19 -1 -30 -6 -30 -16 0 -8 -9 -15 -19 -15 -11 0 -21 -5 -23 -10 -2
-6 -14 -12 -26 -15 -44 -8 -62 -16 -57 -25 3 -5 -3 -7 -15 -5 -11 2 -22 -1
-25 -6 -4 -5 -11 -7 -16 -4 -5 4 -12 -1 -15 -9 -3 -9 -15 -16 -25 -16 -11 0
-31 -7 -44 -16 -14 -9 -32 -14 -40 -10 -9 3 -25 -4 -36 -15 -11 -11 -27 -18
-34 -15 -7 2 -16 -1 -18 -9 -3 -7 -28 -16 -56 -20 -28 -4 -48 -11 -45 -16 3
-5 -1 -9 -8 -10 -42 -2 -74 -12 -83 -23 -5 -7 -18 -12 -27 -10 -10 1 -21 -4
-25 -11 -5 -7 -35 -17 -68 -20 -33 -4 -63 -13 -67 -20 -5 -8 -25 -12 -52 -12
-24 1 -43 0 -41 -3 6 -10 -22 -27 -43 -25 -13 1 -25 -2 -27 -6 -3 -4 -14 -5
-26 -2 -12 3 -24 1 -28 -6 -8 -12 -46 -22 -91 -24 -14 -1 -28 -6 -32 -11 -8
-11 -25 -15 -90 -18 -28 -2 -48 -8 -48 -14 0 -6 -10 -10 -22 -10 -13 1 -27 0
-33 -3 -5 -3 -19 -5 -30 -6 -11 0 -19 -5 -18 -11 1 -7 -18 -10 -53 -9 -30 1
-57 -2 -60 -6 -2 -5 -11 -6 -19 -2 -9 3 -22 0 -30 -7 -13 -11 -43 -15 -147
-23 -20 -2 -42 -8 -50 -13 -7 -6 -32 -10 -55 -9 -24 1 -43 -1 -43 -4 0 -3 -26
-5 -57 -5 -32 1 -63 -3 -70 -8 -11 -9 -62 -13 -248 -23 -33 -1 -61 -4 -62 -5
-2 -1 -7 -4 -13 -5 -5 -1 -11 -3 -12 -5 -10 -8 -94 -5 -100 4 -6 8 -8 8 -8 0
0 -8 -89 -12 -306 -13 -242 -1 -304 1 -298 11 6 9 3 9 -9 -1 -11 -9 -32 -12
-66 -8 l-48 5 2 -74 c1 -47 -1 -71 -8 -67 -6 4 -7 1 -2 -8 12 -19 12 -203 0
-211 -7 -5 -6 -8 1 -8 6 0 9 -14 7 -32 -2 -18 -4 -39 -3 -45 2 -35 5 -52 8
-48 3 2 13 0 23 -6 14 -7 19 -6 19 3 0 8 3 9 8 3 9 -13 72 -13 72 -1 0 6 5 5
11 -1 8 -8 20 -8 35 -3 13 5 24 6 24 2 0 -4 44 -7 98 -6 53 0 103 -4 110 -9 6
-5 12 -5 12 -1 0 5 62 9 138 8 75 0 145 3 154 8 10 5 19 4 23 -2 3 -5 11 -10
16 -10 6 0 8 3 6 8 -3 4 50 6 116 6 93 -1 126 2 139 13 11 10 18 11 23 3 3 -5
12 -7 18 -3 7 5 23 9 37 9 14 1 54 3 90 4 36 2 68 7 71 12 3 4 31 9 63 10 32
1 59 5 61 8 2 3 25 5 52 4 26 -1 51 3 54 9 4 5 28 10 53 11 25 0 46 3 46 6 0
3 15 4 32 4 18 -1 39 3 46 9 13 10 48 14 157 19 24 1 46 9 56 20 11 12 19 14
26 7 8 -8 13 -8 17 0 4 5 13 8 21 4 9 -3 21 0 29 6 7 6 16 8 19 4 4 -3 7 0 7
7 0 7 3 10 7 7 3 -4 13 -1 21 6 13 10 14 9 7 -2 -6 -10 -4 -12 5 -6 7 4 22 9
34 10 36 4 37 5 32 14 -3 4 10 7 29 6 19 -1 35 2 35 5 0 4 12 6 27 4 15 -1 35
4 45 13 9 8 22 12 27 8 6 -3 11 0 11 7 0 9 3 10 8 2 4 -7 15 -8 27 -3 11 4 16
8 10 9 -18 3 39 18 72 19 17 1 33 6 35 12 2 7 15 13 28 15 50 5 84 13 89 22 3
4 17 9 31 10 49 4 65 10 62 22 -2 8 4 11 18 7 11 -3 22 -2 25 3 2 4 16 6 29 5
14 -2 32 5 41 15 8 9 26 16 40 15 14 -2 26 3 29 12 4 8 13 13 21 9 8 -3 15 -1
15 4 0 5 7 7 15 3 9 -3 21 2 28 11 7 10 27 18 46 20 18 1 37 9 42 17 5 8 9 10
9 5 0 -5 6 -3 13 3 8 6 17 8 20 4 4 -3 9 2 13 11 3 9 17 16 33 16 14 0 39 9
55 19 17 11 33 18 38 15 4 -3 11 2 14 10 4 10 18 16 35 16 16 0 32 6 35 13 3
8 10 14 17 14 23 1 41 8 60 25 11 9 28 15 38 13 10 -2 26 3 34 11 8 9 19 13
24 10 5 -3 11 3 14 14 4 16 14 20 46 20 29 0 41 -4 41 -14 0 -9 9 -13 26 -11
18 2 28 -3 31 -15 3 -11 14 -17 30 -17 14 0 30 -8 35 -16 4 -9 17 -14 27 -12
10 2 27 -4 37 -13 11 -9 28 -18 39 -20 11 -2 25 -10 32 -19 6 -8 16 -12 22 -9
5 4 14 -1 19 -11 7 -11 25 -18 51 -20 23 -1 49 -10 58 -18 9 -9 24 -14 34 -12
11 3 19 -2 23 -16 3 -12 8 -18 12 -15 3 4 17 3 30 -2 17 -7 24 -6 24 2 0 6 9
1 19 -11 11 -13 25 -20 31 -16 6 4 16 2 23 -3 12 -10 18 -12 38 -12 5 0 8 -4
5 -8 -2 -4 10 -9 27 -10 17 -2 35 -9 40 -17 5 -9 19 -13 37 -11 17 2 30 -1 30
-6 0 -5 5 -6 10 -3 6 3 13 -1 16 -10 4 -9 16 -15 28 -14 29 2 86 -12 86 -22 0
-4 9 -6 20 -4 11 2 22 -1 25 -6 4 -5 10 -7 15 -4 5 3 15 -1 23 -9 7 -8 31 -15
53 -17 21 -1 49 -9 62 -16 13 -8 30 -12 37 -9 7 2 16 2 19 -2 4 -3 16 -7 28
-9 12 -2 26 -7 32 -11 6 -5 27 -9 46 -11 19 -2 44 -8 55 -14 11 -7 31 -12 45
-12 14 -1 31 -5 38 -9 8 -4 16 -5 19 -2 4 3 16 0 27 -7 12 -7 39 -14 61 -16
70 -4 80 -6 88 -18 4 -6 26 -12 50 -12 64 0 91 -5 99 -17 4 -6 33 -12 65 -13
88 -2 125 -8 132 -19 4 -6 29 -11 56 -11 28 1 52 0 55 -1 3 -2 26 -3 51 -5 25
-1 52 -6 60 -11 19 -12 30 -13 134 -15 50 -1 95 -6 102 -11 7 -6 14 -4 18 3 6
8 10 7 16 -2 6 -10 38 -15 116 -16 59 -2 117 -4 128 -7 11 -2 26 1 33 7 7 6
12 6 12 0 0 -13 32 -13 49 1 11 8 13 8 8 0 -4 -8 15 -12 61 -13 56 -1 70 -5
84 -24 9 -12 13 -24 8 -27 -5 -3 -5 -11 -1 -18 4 -7 5 -33 1 -57 -4 -24 -3
-50 1 -56 4 -7 4 -22 -1 -33 -4 -12 -4 -30 0 -41 4 -11 4 -32 -1 -47 -4 -15
-4 -30 1 -33 5 -3 5 -18 0 -34 -4 -16 -6 -32 -2 -35 5 -6 5 -18 -1 -108 -1
-21 0 -38 3 -38 8 0 4 -85 -4 -99 -4 -6 -2 -11 4 -11 6 0 8 -4 5 -10 -6 -10
-8 -126 -2 -170 2 -14 -1 -33 -5 -42 -5 -11 -5 -18 1 -18 6 0 8 -6 6 -12 -8
-20 -11 -118 -5 -118 7 0 3 -67 -4 -87 -3 -7 -1 -15 4 -18 5 -3 5 -18 1 -33
-5 -15 -5 -36 -1 -47 4 -11 4 -32 -1 -47 -4 -15 -4 -30 1 -33 5 -3 5 -18 0
-34 -4 -16 -6 -32 -2 -35 5 -6 5 -18 -1 -108 -1 -21 0 -38 3 -38 8 0 4 -85 -4
-99 -4 -6 -2 -11 4 -11 6 0 8 -4 5 -10 -6 -10 -8 -126 -2 -170 2 -14 -1 -33
-5 -42 -5 -11 -5 -18 1 -18 6 0 8 -6 6 -12 -7 -19 -11 -118 -5 -118 8 0 4 -85
-4 -99 -4 -6 -2 -11 4 -11 6 0 8 -4 5 -10 -7 -11 -8 -134 -2 -165 2 -11 1 -29
-3 -40 -4 -11 -4 -31 0 -45 4 -14 3 -33 -2 -42 -6 -12 -5 -18 2 -18 6 0 8 -4
5 -10 -7 -11 -8 -134 -2 -165 2 -11 1 -29 -3 -40 -4 -11 -4 -31 0 -45 4 -14 3
-33 -2 -42 -6 -12 -5 -18 2 -18 6 0 8 -4 5 -10 -7 -11 -8 -134 -2 -165 2 -11
1 -29 -3 -40 -4 -11 -4 -31 0 -45 4 -14 2 -34 -3 -45 -6 -11 -11 -68 -12 -126
-1 -58 -4 -109 -7 -115 -3 -5 -5 -33 -6 -63 0 -30 -4 -57 -9 -60 -4 -3 -9 -22
-9 -41 -1 -19 -5 -62 -9 -95 -4 -33 -8 -66 -8 -72 0 -7 -3 -13 -7 -13 -3 0 -7
-10 -7 -22 -4 -51 -11 -94 -21 -118 -5 -14 -8 -35 -7 -47 1 -13 -2 -23 -8 -23
-6 0 -8 -3 -4 -6 3 -4 0 -22 -8 -41 -8 -19 -13 -39 -10 -43 3 -5 1 -11 -4 -14
-5 -4 -8 -14 -7 -24 2 -9 -5 -32 -15 -51 -14 -26 -16 -38 -7 -48 6 -8 7 -13 0
-13 -11 0 -23 -24 -27 -55 -2 -11 -9 -33 -16 -50 -6 -16 -13 -34 -14 -40 -7
-39 -19 -76 -26 -81 -5 -3 -9 -12 -9 -20 0 -9 -12 -41 -26 -72 -15 -31 -27
-61 -29 -67 -4 -19 -17 -50 -45 -110 -16 -33 -32 -70 -35 -82 -3 -13 -11 -23
-16 -23 -5 0 -9 -8 -9 -17 0 -10 -9 -31 -19 -47 -11 -17 -18 -33 -16 -36 2 -4
-3 -16 -13 -26 -9 -10 -18 -27 -20 -38 -2 -10 -12 -28 -22 -39 -11 -11 -17
-24 -14 -29 3 -4 1 -8 -5 -8 -5 0 -13 -10 -17 -22 -3 -13 -14 -31 -23 -42 -9
-10 -16 -21 -15 -25 1 -7 -18 -39 -57 -97 -16 -23 -25 -44 -22 -48 3 -3 1 -6
-5 -6 -7 0 -26 -24 -43 -52 -36 -63 -66 -105 -96 -138 -13 -13 -23 -29 -23
-34 0 -6 -9 -17 -21 -24 -11 -7 -18 -19 -15 -27 3 -8 -3 -17 -15 -20 -10 -4
-19 -10 -19 -14 0 -9 -37 -56 -88 -110 -23 -25 -40 -51 -37 -59 2 -7 0 -10 -5
-7 -6 3 -13 -1 -16 -9 -3 -9 -12 -16 -20 -16 -8 0 -13 -4 -12 -8 2 -4 -13 -23
-32 -42 -19 -19 -34 -38 -32 -42 1 -4 -5 -8 -13 -8 -9 0 -12 -6 -8 -15 3 -9 2
-15 -3 -14 -21 4 -34 -2 -32 -13 2 -7 -3 -12 -9 -10 -7 1 -13 -2 -13 -6 0 -12
-39 -57 -51 -58 -5 -1 -14 -2 -20 -3 -5 0 -8 -5 -5 -10 6 -9 -57 -81 -71 -81
-5 0 -19 -14 -32 -30 -12 -17 -26 -28 -32 -25 -5 4 -9 -1 -9 -9 0 -15 -12 -21
-33 -17 -5 1 -6 -3 -2 -9 3 -5 -5 -15 -19 -22 -14 -6 -26 -18 -26 -25 0 -8 -4
-12 -9 -8 -6 3 -26 -11 -46 -30 -19 -20 -40 -33 -45 -30 -6 4 -10 3 -9 -2 3
-19 -2 -34 -10 -29 -5 3 -26 -10 -47 -29 -22 -19 -44 -35 -50 -35 -7 0 -15 -7
-18 -16 -3 -8 -10 -13 -15 -9 -6 3 -15 -4 -21 -15 -6 -11 -15 -18 -20 -15 -5
3 -14 -4 -20 -15 -6 -11 -15 -18 -20 -15 -5 3 -11 1 -15 -4 -3 -6 -12 -8 -20
-4 -9 3 -15 -1 -15 -11 0 -14 -33 -40 -53 -41 -4 0 -12 -7 -17 -15 -5 -8 -14
-16 -20 -16 -5 -1 -15 -2 -21 -3 -5 0 -7 -5 -4 -11 5 -9 -7 -14 -26 -12 -4 1
-15 -8 -24 -18 -10 -11 -26 -20 -35 -20 -10 0 -21 -7 -24 -16 -4 -9 -13 -14
-22 -10 -8 3 -13 2 -10 -3 7 -11 -18 -33 -27 -24 -4 3 -7 0 -7 -7 0 -7 -3 -11
-6 -7 -6 6 -13 1 -53 -33 -10 -8 -23 -16 -30 -18 -7 -1 -20 -9 -28 -17 -8 -9
-19 -13 -24 -10 -5 4 -9 1 -9 -5 0 -6 -4 -8 -10 -5 -5 3 -10 -1 -10 -10 0 -9
-4 -14 -9 -10 -5 3 -12 1 -16 -5 -4 -6 -11 -8 -16 -5 -5 4 -9 0 -9 -8 0 -8
-11 -17 -23 -21 -13 -3 -37 -18 -52 -33 -16 -16 -25 -22 -20 -14 5 9 -2 7 -18
-5 -15 -10 -27 -22 -27 -26 0 -5 -9 -8 -20 -8 -11 0 -20 -6 -20 -14 0 -8 -5
-18 -12 -22 -7 -5 -8 -3 -3 7 7 11 6 12 -7 2 -8 -7 -18 -10 -21 -6 -4 3 -7 -1
-7 -11 0 -9 -4 -15 -9 -12 -4 3 -16 -3 -26 -14 -10 -11 -21 -17 -26 -14 -5 2
-17 -4 -29 -16 -11 -11 -27 -20 -35 -20 -9 0 -18 -7 -21 -15 -4 -8 -12 -15
-20 -15 -8 0 -23 -9 -33 -19 -11 -11 -21 -18 -23 -15 -2 2 -19 -10 -38 -27
-28 -26 -42 -31 -87 -32 -35 -1 -57 4 -62 12 -8 12 -34 30 -71 47 -8 4 -20 15
-27 23 -6 9 -15 13 -19 9 -4 -5 -14 1 -22 13 -8 11 -20 18 -28 15 -8 -3 -14
-1 -14 5 0 17 -24 36 -38 31 -8 -2 -20 5 -28 16 -8 12 -21 19 -29 16 -10 -4
-15 0 -15 11 0 9 -4 14 -9 10 -6 -3 -15 4 -21 15 -6 12 -17 19 -25 17 -7 -3
-22 3 -34 14 -12 11 -21 16 -21 12 0 -4 -4 -3 -8 3 -10 15 -95 69 -105 66 -4
-1 -6 1 -5 5 2 5 0 8 -3 8 -3 0 -13 6 -22 14 -10 7 -17 10 -17 5 0 -4 -6 0
-12 9 -7 9 -19 17 -27 19 -8 2 -27 15 -43 31 -26 25 -40 31 -61 28 -4 -1 -10
6 -13 14 -4 8 -15 15 -25 15 -10 0 -19 7 -19 15 0 13 -6 17 -26 14 -3 0 -11 7
-18 17 -7 9 -18 14 -23 11 -6 -4 -13 3 -16 14 -4 15 -11 20 -21 16 -9 -4 -16
-2 -16 3 0 6 -5 10 -11 10 -6 0 -17 7 -26 15 -8 8 -19 12 -24 9 -6 -3 -13 3
-16 14 -4 17 -9 19 -28 12 -13 -5 -26 -6 -29 -3 -8 9 -70 8 -84 -1 -7 -4 -12
-2 -12 5 0 9 -3 10 -10 3 -6 -6 -35 -7 -70 -4 -35 3 -64 2 -70 -4 -7 -7 -10
-5 -10 4 0 9 -3 11 -10 4 -6 -6 -36 -7 -71 -4 -33 3 -63 2 -66 -3 -2 -4 -11
-3 -19 4 -8 6 -14 7 -14 2 0 -5 -24 -6 -55 -3 -30 3 -61 2 -70 -2 -9 -6 -15
-5 -15 2 0 6 -5 8 -11 5 -16 -10 -119 -11 -119 -1 0 4 -8 5 -17 1 -10 -4 -23
-8 -28 -8 -8 0 -8 -10 0 -34 6 -21 16 -32 25 -31 9 2 27 -7 40 -20 13 -12 28
-22 32 -22 5 0 6 -4 3 -10 -3 -5 3 -10 14 -10 11 0 25 -9 31 -20 6 -11 15 -18
20 -15 5 3 11 -4 15 -15 4 -11 10 -18 15 -15 5 3 28 -14 53 -37 24 -24 46 -44
48 -45 2 -1 13 -5 24 -9 11 -4 27 -15 35 -23 26 -27 78 -61 95 -61 8 0 15 -7
15 -15 0 -8 9 -15 20 -15 11 0 20 -5 20 -11 0 -10 58 -35 73 -31 4 1 6 -1 5
-5 -2 -5 1 -9 5 -10 5 -1 16 -10 25 -21 9 -10 23 -17 30 -15 10 4 16 -8 14
-28 -1 -4 7 -5 18 -2 12 3 22 -1 26 -11 3 -9 15 -16 25 -16 10 0 19 -4 19 -10
0 -5 20 -18 45 -29 25 -11 45 -25 45 -31 0 -6 5 -8 10 -5 6 3 13 -1 16 -9 3
-9 10 -13 15 -10 5 3 9 -2 9 -10 0 -9 9 -16 20 -16 11 0 28 -8 38 -18 10 -9
25 -18 33 -20 8 -2 16 -8 17 -13 2 -5 10 -9 18 -9 8 0 17 -7 21 -16 3 -8 11
-13 18 -10 6 2 18 -4 26 -15 7 -10 18 -19 24 -19 6 0 21 -9 33 -20 12 -12 22
-17 22 -13 0 4 7 0 14 -9 7 -10 24 -19 37 -22 13 -2 23 -9 21 -15 -1 -6 5 -11
13 -11 9 0 18 -7 21 -15 4 -8 14 -15 23 -15 9 0 22 -5 28 -11 13 -13 47 -33
81 -49 13 -5 21 -14 18 -19 -3 -5 10 -12 29 -15 20 -4 33 -11 30 -17 -4 -5 1
-9 9 -9 9 0 16 -4 16 -9 0 -5 16 -15 35 -22 19 -7 35 -19 35 -27 0 -7 4 -10
10 -7 5 3 17 -3 26 -14 9 -10 23 -17 30 -14 7 2 18 -5 24 -17 6 -11 15 -18 20
-15 5 3 15 -3 22 -12 7 -10 24 -19 38 -21 14 -2 35 -15 47 -29 23 -28 49 -38
59 -22 3 5 9 7 14 4 4 -3 10 2 14 10 3 8 16 15 30 15 13 0 27 7 30 16 3 8 10
13 15 10 5 -3 11 4 14 15 4 16 11 20 26 16 12 -3 18 -1 15 4 -3 5 11 16 30 24
20 9 36 20 36 26 0 5 5 7 10 4 6 -3 10 -1 10 5 0 6 11 15 25 20 14 5 25 15 25
21 0 6 9 9 20 6 11 -3 18 -1 14 4 -3 5 1 9 9 9 8 0 17 7 21 15 3 8 11 15 18
15 7 0 25 11 40 25 15 14 34 25 42 25 8 0 21 8 28 18 7 9 19 18 27 20 7 1 20
9 28 17 8 9 18 13 23 10 4 -3 11 2 14 11 3 8 10 12 16 9 5 -3 10 -1 10 6 0 7
3 10 6 6 4 -3 21 5 39 18 17 14 35 22 38 19 4 -4 9 1 13 10 3 9 12 16 20 16 8
0 14 7 14 16 0 10 6 14 15 11 8 -4 17 -2 20 4 4 5 11 7 16 4 5 -4 9 1 9 10 0
9 5 13 10 10 6 -3 10 -2 10 4 0 13 55 42 64 34 3 -4 6 1 6 10 0 10 8 17 20 17
11 0 20 4 20 9 0 5 9 13 20 16 11 4 18 11 15 16 -4 5 -1 10 4 10 6 1 15 2 21
3 5 0 18 9 30 18 11 10 20 15 20 11 0 -3 11 4 25 17 14 13 25 20 25 15 0 -4 9
2 19 14 11 12 22 22 25 22 19 -3 27 1 46 21 11 12 20 18 20 13 0 -4 8 1 18 11
9 11 25 18 35 16 10 -2 17 3 17 12 0 9 6 16 14 16 8 0 22 8 32 18 10 9 21 17
26 17 5 0 12 5 16 10 4 6 19 16 34 24 15 8 36 22 47 32 11 10 25 20 32 21 7 2
24 14 37 28 14 14 28 24 33 22 5 -1 12 5 15 13 4 8 12 15 20 15 8 0 14 5 14
11 0 5 4 8 9 4 5 -3 12 4 16 15 4 11 11 17 17 14 5 -3 24 9 41 27 18 19 47 45
66 59 19 14 45 36 59 50 13 14 21 18 17 10 -4 -8 9 2 28 22 20 21 43 38 51 38
9 0 13 6 10 14 -3 9 4 16 21 20 14 4 23 11 20 16 -3 6 -1 10 4 10 6 0 11 7 11
16 0 8 4 13 9 10 10 -7 131 108 131 124 0 6 11 15 25 22 13 6 22 14 20 18 -2
4 7 12 21 19 14 6 22 16 19 21 -3 6 -1 10 4 10 6 0 11 7 11 16 0 8 5 12 10 9
6 -3 10 -1 10 5 0 6 5 8 10 5 6 -4 9 -3 8 2 -3 10 27 55 33 49 2 -2 10 2 17
10 7 8 11 14 8 14 -3 0 5 10 17 23 28 29 86 97 114 134 12 15 31 38 42 50 12
12 21 25 21 28 0 4 6 12 13 19 6 7 21 25 32 40 11 16 25 33 31 40 5 6 13 19
17 29 4 10 11 15 17 12 6 -3 7 1 4 9 -3 9 -2 16 2 16 5 0 15 13 22 30 8 16 19
28 25 27 6 -1 11 3 12 10 0 7 6 18 13 25 6 6 12 18 12 24 0 7 10 20 21 28 14
9 19 21 15 31 -3 9 -2 13 4 10 6 -3 11 -1 11 4 1 6 2 15 3 21 1 12 26 36 26
25 0 -5 12 15 28 45 15 29 35 55 45 58 9 2 18 11 18 18 1 8 2 22 3 32 1 9 12
32 26 50 14 19 26 38 26 43 1 5 2 13 3 18 0 5 8 17 17 25 9 9 17 22 18 29 1 6
10 27 19 44 10 18 14 33 10 33 -5 0 -3 4 3 8 13 8 89 163 86 175 -1 4 2 7 7 7
9 0 22 32 25 60 1 8 6 22 11 30 5 8 10 17 11 20 0 3 6 18 12 33 7 16 12 35 12
43 0 8 5 14 11 14 6 0 9 6 6 14 -3 8 0 20 8 26 8 6 11 18 8 26 -3 8 0 14 7 14
6 0 9 4 5 9 -3 5 -1 12 5 16 5 3 10 17 10 30 0 13 5 27 11 31 6 3 9 14 6 24
-3 11 2 21 10 24 8 4 13 12 10 20 -3 7 0 19 6 25 6 6 7 11 2 11 -6 0 -5 4 1 8
7 4 14 21 15 37 2 17 8 33 14 37 6 5 5 8 -3 8 -9 0 -7 8 7 28 15 22 17 32 9
40 -9 9 -9 12 0 12 7 0 12 11 12 25 0 14 5 25 10 25 6 0 10 9 10 20 0 11 4 20
9 20 4 0 8 17 7 38 -1 20 5 60 14 87 9 28 16 60 15 73 -1 12 1 22 5 22 4 0 7
6 7 13 1 6 5 37 9 67 5 30 8 67 8 82 -1 15 3 25 7 22 5 -3 9 5 10 18 0 13 2
39 5 58 2 19 6 51 8 70 2 19 7 53 11 75 3 22 7 58 8 80 2 22 6 46 11 54 7 10
5 12 -3 6 -10 -5 -11 -3 -4 11 5 11 9 48 9 84 -1 36 3 68 9 72 6 5 6 8 -2 8
-8 0 -9 9 -2 33 8 28 10 54 8 142 0 11 1 737 1 1612 1 876 -2 1597 -5 1603 -3
5 -2 10 2 10 12 0 5 203 -7 210 -6 3 -35 5 -65 4 -39 -1 -53 1 -48 10 5 8 3 8
-8 -1 -10 -8 -80 -11 -242 -10 -146 1 -227 -2 -227 -8 0 -5 -5 -3 -10 5 -8 12
-10 12 -10 1 0 -9 -4 -10 -12 -4 -7 5 -28 8 -46 6 -24 -2 -31 0 -26 10 6 9 4
9 -7 1 -11 -9 -91 -12 -109 -4 -3 1 -21 2 -40 2 -19 0 -39 4 -45 8 -5 4 -38 7
-73 6 -34 0 -62 1 -62 4 0 3 -11 6 -25 6 -16 1 -22 -2 -18 -10 4 -6 -1 -5 -10
3 -13 10 -20 11 -31 2 -10 -9 -16 -9 -21 -1 -4 6 -15 8 -26 5 -12 -4 -21 -1
-24 7 -4 9 -21 14 -43 15 -74 1 -186 13 -191 21 -3 4 -17 7 -31 7 -14 -1 -29
1 -35 4 -5 3 -32 6 -60 8 -27 2 -59 7 -70 12 -30 14 -94 18 -99 6 -2 -5 -5 -1
-5 11 -1 18 -7 21 -43 22 -50 0 -92 7 -110 19 -16 9 -32 12 -80 14 -20 1 -39
8 -42 15 -3 8 -19 12 -41 10 -20 -1 -38 1 -41 6 -3 5 -11 7 -17 6 -7 -1 -21 3
-32 9 -26 14 -76 19 -93 9 -7 -4 -12 -4 -11 1 4 23 -3 34 -18 31 -10 -1 -24 1
-30 5 -7 5 -13 5 -13 1 0 -3 -7 -1 -15 6 -12 10 -15 10 -15 -1 -1 -10 -5 -8
-15 5 -7 10 -18 15 -24 12 -5 -4 -12 -2 -16 3 -3 6 -12 8 -21 4 -8 -3 -23 2
-34 12 -10 9 -23 14 -29 11 -5 -4 -12 -2 -16 4 -4 6 -10 8 -15 5 -4 -3 -10 1
-13 8 -3 8 -22 14 -43 15 -21 1 -41 7 -45 15 -4 7 -24 14 -45 15 -21 2 -42 9
-48 17 -6 7 -24 15 -41 17 -16 2 -38 11 -49 20 -10 9 -24 14 -31 12 -7 -3 -19
2 -28 10 -8 9 -29 17 -46 18 -17 1 -31 8 -31 14 0 6 -9 14 -20 17 -11 3 -17 1
-14 -4 3 -5 -6 -4 -20 2 -14 7 -23 16 -20 20 4 8 -43 14 -68 10 -5 0 -8 6 -8
14 0 14 -12 20 -33 16 -4 -1 -10 6 -13 14 -4 8 -17 15 -29 15 -13 0 -31 7 -40
16 -9 9 -23 13 -32 9 -10 -3 -14 -3 -10 1 12 12 -32 42 -54 37 -13 -4 -25 1
-35 16 -8 11 -23 21 -32 21 -9 0 -26 7 -36 15 -10 8 -23 12 -27 9 -5 -3 -9 2
-9 10 0 9 -6 16 -12 17 -7 0 -28 2 -46 3 -19 1 -49 -6 -68 -16z"/>
<path d="M293 7658 c-2 -5 1 -8 8 -8 7 0 10 -3 6 -6 -3 -3 11 -29 30 -57 20
-28 36 -57 36 -64 0 -7 7 -15 14 -17 8 -3 11 -10 8 -16 -3 -5 -2 -10 3 -10 4
0 16 -16 25 -35 9 -19 21 -35 27 -35 5 0 7 -8 3 -17 -3 -10 -3 -15 2 -11 7 7
49 -57 62 -94 3 -10 9 -18 14 -18 5 0 9 -7 9 -15 0 -9 7 -18 15 -21 8 -4 12
-10 9 -15 -3 -5 -1 -9 4 -9 5 0 12 -8 16 -17 7 -22 45 -85 66 -111 8 -10 16
-24 18 -32 2 -7 12 -24 23 -38 10 -14 19 -29 19 -33 0 -5 7 -17 15 -26 8 -10
15 -21 15 -26 0 -7 9 -20 38 -52 7 -8 10 -19 7 -25 -3 -6 1 -13 9 -16 8 -3 18
-14 21 -25 4 -10 12 -25 18 -32 7 -7 20 -26 29 -42 17 -30 31 -35 96 -35 35 1
55 0 75 -1 6 0 44 0 82 1 39 0 101 1 139 1 39 0 73 2 77 5 4 2 10 0 14 -6 4
-6 11 -8 16 -4 13 8 285 8 298 0 5 -4 12 -2 15 3 4 6 18 6 36 1 17 -5 30 -6
30 -2 0 8 369 6 377 -2 3 -3 13 -2 22 2 9 5 27 7 41 5 14 -2 66 -3 115 -2 129
1 299 0 305 -2 3 -1 10 0 15 1 32 7 56 6 61 -2 3 -4 10 -6 15 -2 8 5 356 8
384 3 6 -1 15 0 20 1 32 7 56 6 61 -2 3 -4 10 -6 15 -2 17 10 59 12 65 2 3 -4
10 -6 15 -2 17 10 59 12 65 2 3 -4 10 -6 15 -2 13 8 385 7 398 -1 6 -3 11 -3
11 2 0 9 1083 8 1106 -1 8 -3 14 -2 14 2 0 9 54 7 69 -3 6 -3 11 -3 11 2 0 4
809 7 1798 6 988 -1 1807 0 1818 2 20 4 22 10 18 65 -2 43 0 59 8 54 7 -5 8
-3 2 7 -13 21 -13 102 0 118 8 11 8 13 -1 7 -9 -5 -13 0 -13 14 0 13 4 19 12
14 7 -5 8 -3 2 7 -12 19 -14 101 -2 116 5 7 6 18 2 25 -12 19 -14 87 -3 94 5
3 6 11 2 17 -13 21 -12 188 1 180 8 -5 8 -3 0 8 -6 8 -10 60 -10 126 1 94 -1
110 -13 103 -8 -4 -26 -4 -39 1 -14 5 -21 5 -17 0 3 -6 -4 -9 -15 -8 -11 1
-20 5 -20 10 0 4 -6 5 -12 0 -17 -10 -68 -11 -74 -1 -3 5 -10 6 -15 2 -17 -10
-59 -12 -65 -2 -3 4 -10 5 -16 2 -16 -10 -59 -11 -86 -2 -14 5 -21 4 -17 -1 3
-6 -4 -9 -15 -8 -11 1 -20 5 -20 10 0 4 -6 5 -12 0 -17 -10 -68 -11 -74 -1 -3
5 -10 6 -15 2 -17 -10 -59 -12 -65 -2 -3 4 -10 5 -16 2 -16 -10 -59 -11 -86
-2 -14 5 -21 4 -17 -1 3 -6 -4 -9 -15 -8 -11 1 -20 5 -20 10 0 4 -6 5 -12 0
-17 -10 -68 -11 -74 -1 -3 5 -10 5 -16 2 -17 -11 -78 -12 -78 -1 0 5 -7 4 -16
-4 -9 -7 -18 -9 -22 -3 -6 8 -27 10 -42 4 -18 -7 -60 -4 -60 5 0 5 -5 3 -10
-5 -8 -12 -10 -12 -10 -1 0 11 -3 11 -16 0 -13 -10 -17 -10 -24 0 -5 9 -13 10
-21 5 -17 -10 -78 -12 -100 -2 -9 4 -19 4 -23 1 -12 -12 -36 -12 -36 0 0 8 -3
8 -8 2 -10 -14 -32 -17 -32 -5 0 7 -6 7 -20 0 -13 -7 -20 -7 -20 -1 0 7 -9 7
-27 0 -19 -7 -29 -7 -31 0 -3 8 -10 8 -23 1 -14 -8 -19 -7 -19 2 0 8 -3 9 -11
1 -6 -6 -23 -8 -45 -3 -18 4 -32 4 -29 0 2 -4 -9 -7 -25 -6 -17 1 -30 4 -30 8
0 4 -12 3 -27 -3 -15 -6 -29 -6 -32 -1 -3 5 -15 6 -26 2 -11 -4 -30 -4 -42 1
-13 5 -25 4 -28 -1 -4 -7 -13 -7 -24 0 -10 5 -21 6 -25 3 -9 -10 -46 -11 -46
-2 0 4 -12 4 -28 0 -15 -5 -37 -4 -50 0 -13 5 -21 5 -18 1 3 -5 -11 -8 -29 -8
-19 1 -35 4 -35 8 0 4 -12 3 -28 -1 -15 -5 -37 -4 -50 0 -15 6 -21 5 -17 -1 7
-12 -2 -12 -30 -1 -11 5 -28 4 -37 -1 -12 -6 -18 -5 -18 3 0 9 -3 9 -14 0 -10
-8 -16 -9 -21 -1 -4 7 -12 7 -26 0 -13 -8 -19 -7 -19 0 0 6 -5 8 -12 4 -17
-11 -58 -11 -58 -1 0 4 -9 3 -19 -3 -14 -7 -21 -6 -24 3 -4 9 -6 9 -6 0 -1 -9
-8 -10 -24 -4 -14 6 -30 5 -41 -1 -10 -6 -21 -6 -25 -2 -8 12 -31 16 -31 6 0
-4 -11 -7 -25 -7 -14 0 -25 4 -25 8 0 4 -9 3 -19 -3 -12 -6 -22 -6 -26 -1 -5
10 -37 7 -55 -4 -6 -3 -10 -1 -10 6 0 9 -3 9 -14 0 -10 -8 -16 -9 -21 -1 -4 7
-12 7 -26 0 -13 -8 -19 -7 -19 0 0 6 -5 8 -12 3 -18 -11 -38 -13 -38 -3 0 8
-43 5 -59 -5 -6 -3 -11 -1 -11 5 0 6 -5 8 -12 3 -19 -11 -38 -12 -38 -2 0 6
-8 5 -20 -1 -11 -6 -20 -7 -20 -2 0 10 -42 8 -59 -3 -6 -3 -11 -1 -11 5 0 6
-5 8 -12 3 -17 -10 -38 -13 -38 -4 0 9 -42 7 -58 -3 -7 -4 -12 -2 -12 4 0 7
-6 8 -19 0 -14 -7 -22 -7 -26 0 -5 8 -11 7 -21 -1 -11 -9 -14 -9 -14 0 0 8 -6
9 -17 3 -10 -5 -27 -6 -38 -2 -11 4 -26 3 -32 -2 -9 -7 -13 -7 -13 1 0 7 -8 8
-25 1 -14 -5 -25 -6 -25 -1 0 11 -19 9 -37 -2 -8 -5 -13 -3 -13 3 0 7 -6 8
-16 2 -8 -5 -35 -6 -59 -2 -27 4 -48 3 -55 -4 -7 -7 -10 -7 -10 0 0 12 -29 12
-48 0 -7 -4 -12 -2 -12 4 0 7 -6 8 -19 0 -14 -7 -21 -6 -24 3 -4 9 -6 9 -6 -1
-1 -7 -6 -10 -13 -6 -14 9 -103 9 -117 -1 -6 -3 -11 -3 -11 2 0 9 -122 8 -146
-1 -8 -3 -14 -2 -14 2 0 9 -104 7 -120 -3 -7 -4 -15 -3 -19 2 -5 9 -43 10 -61
3 -3 -1 -9 -1 -15 0 -31 7 -75 4 -79 -5 -3 -7 -5 -7 -5 0 -1 11 -74 11 -91 0
-6 -3 -10 -1 -10 4 0 13 -22 10 -32 -4 -5 -6 -8 -5 -8 4 0 10 -3 11 -13 2 -8
-6 -17 -8 -21 -4 -10 10 -98 10 -120 0 -12 -6 -16 -5 -12 1 6 11 -44 9 -62 -2
-7 -4 -12 -3 -12 1 0 5 -9 9 -20 10 -11 1 -18 -2 -16 -6 6 -10 -25 -8 -42 3
-7 4 -19 2 -27 -4 -8 -7 -15 -8 -15 -3 0 5 -9 9 -20 10 -11 1 -18 -2 -16 -6 3
-4 -1 -8 -9 -8 -8 0 -15 4 -15 8 0 8 -20 7 -36 -4 -6 -3 -14 -3 -18 0 -9 9
-86 11 -81 3 2 -4 -2 -7 -10 -7 -8 0 -15 3 -15 6 0 4 -22 6 -49 6 -27 0 -47
-4 -44 -9 4 -5 0 -6 -7 -1 -17 11 -80 14 -74 3 3 -4 -5 -4 -18 0 -27 9 -70 8
-86 -2 -6 -3 -13 -3 -16 2 -6 10 -87 9 -103 -1 -6 -4 -13 -4 -17 0 -10 10
-165 9 -159 -1 4 -5 0 -6 -7 -1 -20 12 -74 12 -82 0 -6 -7 -10 -7 -15 0 -10
14 -96 13 -105 0 -5 -6 -11 -5 -17 3 -4 8 -12 14 -16 14 -4 0 -12 -6 -16 -14
-5 -7 -9 -8 -9 -2 0 13 -92 13 -102 -1 -5 -7 -11 -7 -15 0 -9 12 -93 13 -111
1 -7 -4 -12 -3 -12 1 0 5 -22 8 -50 8 -27 0 -50 -3 -50 -8 0 -4 -5 -5 -12 -1
-15 10 -2059 11 -2065 2z"/>
<path d="M1620 6199 c0 -3 11 -23 25 -43 14 -20 25 -41 25 -46 0 -6 5 -10 10
-10 6 0 10 -6 10 -14 0 -8 6 -21 14 -28 7 -8 21 -30 31 -48 10 -19 21 -37 26
-40 4 -3 9 -12 11 -20 3 -14 7 -20 36 -54 6 -8 12 -22 12 -31 0 -8 5 -15 11
-15 5 0 15 -13 20 -30 6 -16 16 -30 22 -30 6 0 8 -3 4 -6 -3 -3 -1 -11 4 -18
25 -29 67 -101 63 -107 -2 -4 3 -9 11 -13 8 -3 15 -12 15 -21 0 -8 5 -15 10
-15 6 0 10 -7 10 -15 0 -8 5 -15 10 -15 6 0 10 -7 10 -15 0 -8 10 -24 23 -36
12 -12 16 -19 9 -14 -8 4 2 -16 22 -44 20 -28 34 -51 31 -51 -3 0 4 -10 15
-22 11 -13 23 -33 26 -45 4 -13 10 -20 15 -17 5 3 6 -2 3 -10 -4 -10 -1 -16
10 -16 10 0 13 -5 9 -17 -4 -10 -2 -14 4 -10 6 4 13 -3 17 -17 6 -23 8 -23
116 -22 60 1 110 -3 110 -7 0 -5 5 -5 12 -1 7 4 883 8 1948 9 1086 0 1941 4
1949 9 8 5 12 5 8 0 -7 -13 826 -12 835 1 5 7 8 7 8 0 0 -7 236 -9 692 -8 381
1 695 2 698 2 4 1 5 934 1 951 -2 8 -6951 7 -6951 -1z"/>
<path d="M3276 4753 c-4 -4 -25 -6 -46 -4 -44 3 -44 3 -40 -79 1 -25 3 -90 4
-145 1 -55 5 -106 9 -112 5 -7 4 -13 0 -13 -5 0 -9 -11 -9 -25 0 -14 3 -25 6
-25 9 0 6 -32 -4 -48 -4 -6 -3 -12 1 -12 5 0 9 -52 8 -115 0 -63 2 -115 5
-115 3 0 4 -26 4 -57 -1 -32 3 -66 8 -77 7 -12 7 -16 0 -12 -11 7 -7 -87 4
-106 4 -6 0 -14 -7 -19 -8 -5 52 -8 144 -6 86 1 157 -2 157 -6 0 -5 5 -5 12
-1 14 9 343 8 357 -1 6 -3 11 -3 11 2 0 4 25 8 55 8 30 0 55 -4 55 -8 0 -5 5
-5 11 -2 15 10 189 12 189 2 0 -4 5 -5 11 -1 6 3 158 6 338 5 381 -1 341 -2
414 2 31 1 57 -2 57 -6 0 -5 6 -5 13 0 17 10 187 10 187 -1 0 -5 6 -4 13 1 15
13 47 13 47 0 0 -6 5 -6 13 0 15 13 47 13 47 1 0 -5 6 -6 12 -2 17 11 188 11
188 1 0 -4 6 -5 12 0 18 10 108 11 108 0 0 -4 5 -5 12 -1 7 4 591 9 1298 10
707 1 1293 2 1303 3 10 0 16 5 12 10 -3 5 0 13 6 16 5 4 8 13 5 20 -3 8 -1 15
5 17 5 2 12 16 15 32 3 16 9 37 15 48 5 10 7 18 3 18 -4 0 0 8 9 18 10 10 14
21 11 24 -3 4 2 20 11 37 8 17 13 31 9 31 -4 0 -2 6 3 13 6 6 9 20 8 30 -2 9
1 17 6 17 5 0 9 10 9 23 0 13 6 29 13 36 10 11 9 12 -3 6 -12 -7 -13 -6 -3 7
7 8 10 18 6 21 -3 4 -1 7 4 7 6 0 10 11 8 25 -1 14 2 28 6 31 5 3 9 16 9 30 0
13 3 24 8 24 4 0 7 10 8 23 1 28 8 59 15 72 3 6 6 25 8 44 1 19 7 41 13 48 8
10 7 13 -3 13 -9 0 -10 3 -4 8 11 8 15 26 18 85 1 20 4 37 7 37 3 0 6 20 7 43
l1 44 -754 -1 c-496 -1 -754 2 -754 9 0 7 -3 7 -8 0 -4 -6 -95 -10 -237 -10
-142 0 -233 4 -237 10 -5 7 -8 7 -8 0 0 -8 -480 -13 -515 -5 -5 1 -14 2 -20 0
-27 -5 -456 -2 -462 4 -3 3 -12 1 -20 -5 -10 -9 -13 -8 -13 2 0 9 -3 10 -8 4
-9 -12 -62 -14 -62 -2 0 4 -5 5 -11 1 -16 -9 -109 -11 -109 -1 0 5 -5 5 -12 1
-16 -10 -108 -11 -108 -1 0 5 -5 5 -12 1 -16 -10 -68 -11 -68 -1 0 5 -5 5 -10
2 -16 -10 -230 -11 -230 -2 0 5 -5 5 -11 1 -15 -9 -108 -11 -122 -2 -6 4 -17
2 -24 -4 -10 -8 -13 -7 -13 3 0 9 -3 10 -8 4 -9 -12 -62 -14 -62 -2 0 4 -5 5
-11 1 -16 -9 -109 -11 -109 -1 0 5 -5 5 -11 1 -16 -9 -109 -11 -109 -1 0 5 -5
5 -11 1 -15 -9 -108 -11 -122 -2 -6 4 -17 2 -24 -4 -10 -8 -13 -7 -13 3 0 9
-3 10 -8 4 -9 -12 -62 -14 -62 -2 0 4 -5 5 -10 2 -16 -10 -230 -11 -230 -2 0
5 -6 5 -12 1 -19 -12 -48 -12 -48 0 0 6 -4 6 -11 -1 -7 -7 -21 -8 -39 -3 -19
5 -30 4 -32 -2 -3 -8 -10 -7 -25 0 -11 6 -23 9 -26 6 -9 -9 -267 -10 -267 -1
0 4 -7 4 -16 -1 -8 -5 -35 -6 -59 -2 -26 4 -46 3 -48 -3 -2 -6 -11 -6 -24 1
-11 6 -23 8 -27 5z"/>
<path d="M4028 3292 c-14 -3 -16 -16 -11 -90 2 -48 6 -125 7 -172 1 -47 6 -91
10 -98 4 -7 2 -12 -5 -12 -7 0 -8 -4 -2 -12 5 -7 9 -59 9 -115 -1 -57 1 -103
4 -103 3 0 6 -39 7 -88 4 -121 7 -155 17 -171 6 -10 5 -12 -2 -7 -9 5 -11 -6
-7 -40 3 -26 7 -49 9 -52 10 -9 136 -7 140 3 3 6 5 5 5 -2 1 -7 8 -10 16 -7 9
4 15 0 15 -7 0 -11 2 -11 8 -2 5 9 36 12 100 10 54 -1 94 2 96 8 3 6 5 4 5 -3
1 -7 6 -10 12 -6 6 3 15 0 20 -7 5 -9 9 -10 9 -2 0 16 230 16 230 -1 0 -6 4
-5 9 3 5 8 16 11 25 8 9 -4 16 -1 16 6 0 7 3 8 8 2 8 -12 232 -14 232 -2 0 5
5 5 11 1 16 -9 189 -11 189 -1 0 5 5 5 11 1 18 -11 109 -10 109 1 0 7 3 7 8 0
8 -12 112 -14 112 -2 0 5 5 5 11 1 18 -11 109 -10 109 1 0 7 3 7 8 0 4 -5 30
-10 57 -10 28 0 53 5 57 10 5 7 8 7 8 0 0 -11 91 -12 109 -1 6 4 11 4 11 -1 0
-10 93 -8 109 1 6 4 11 4 11 -1 0 -4 23 -8 50 -8 28 0 50 4 50 8 0 5 5 5 12 1
7 -4 32 -7 56 -5 34 2 43 0 37 -11 -3 -7 0 -5 8 4 8 10 17 15 20 12 9 -10 107
-10 107 -1 0 5 5 5 12 1 7 -4 32 -7 56 -5 34 2 43 0 37 -11 -3 -7 0 -5 8 4 8
10 17 15 20 11 8 -7 137 -10 137 -3 0 3 18 4 40 2 26 -3 38 -8 34 -16 -3 -6 1
-3 9 6 8 10 17 15 20 11 9 -8 137 -10 137 -1 0 4 14 3 30 -2 17 -5 30 -5 30 0
0 5 13 5 30 0 17 -5 30 -5 30 0 0 5 13 5 30 0 17 -5 30 -5 30 0 0 5 13 5 30 0
17 -5 30 -5 30 -2 0 4 18 6 40 4 26 -3 38 -8 34 -16 -3 -6 1 -3 9 6 8 10 17
15 21 11 3 -4 52 -6 108 -4 74 1 103 -1 109 -11 6 -9 9 -6 9 10 0 13 4 20 10
17 6 -3 10 1 10 9 0 9 8 16 17 16 9 0 14 3 10 6 -3 3 11 23 31 43 44 44 107
116 142 161 14 18 35 42 48 53 12 11 22 26 22 32 0 6 14 24 30 40 17 16 28 35
26 42 -3 8 1 10 11 6 12 -5 15 -2 10 10 -4 11 -1 17 8 17 8 0 15 6 15 14 0 8
4 16 9 18 5 2 27 31 49 65 21 34 43 59 47 55 5 -4 5 1 2 11 -4 11 -1 17 9 17
8 0 13 4 9 9 -3 5 1 15 8 23 18 19 48 68 42 68 -3 0 0 6 7 14 7 8 15 12 18 11
3 -2 7 6 7 17 1 12 6 24 10 27 12 9 44 61 38 61 -4 0 0 7 7 15 29 33 38 45 33
45 -4 0 1 8 11 18 17 16 13 17 -92 22 -60 3 -110 2 -112 -2 -2 -3 -16 -2 -33
2 -16 5 -29 5 -29 0 0 -5 -13 -5 -30 0 -19 5 -32 5 -36 -2 -4 -6 -10 -5 -15 3
-5 8 -9 9 -9 3 0 -7 -15 -9 -45 -4 -25 4 -45 3 -45 -1 0 -4 -14 -4 -30 1 -17
5 -30 5 -30 0 0 -5 -13 -5 -30 0 -19 5 -32 5 -36 -2 -4 -6 -10 -5 -15 3 -5 8
-9 9 -9 3 0 -7 -15 -9 -45 -4 -26 4 -48 3 -55 -4 -7 -7 -10 -6 -10 5 0 12 -2
12 -10 -1 -5 -8 -10 -10 -10 -5 0 6 -26 8 -70 5 -44 -3 -70 -1 -70 5 0 5 -5 3
-10 -5 -5 -8 -10 -10 -10 -5 0 6 -33 10 -80 10 -44 0 -80 -2 -80 -5 0 -3 -27
-3 -61 0 -33 3 -63 2 -66 -3 -3 -5 -9 -3 -14 4 -8 12 -10 12 -18 0 -7 -11 -9
-11 -14 0 -4 9 -6 10 -6 2 -1 -7 -7 -10 -13 -8 -31 11 -88 12 -88 1 0 -6 -5
-4 -10 4 -6 9 -10 11 -10 3 0 -7 -6 -10 -12 -8 -31 11 -88 12 -88 1 0 -6 -5
-4 -10 4 -6 9 -10 11 -10 3 0 -7 -6 -10 -12 -8 -31 11 -88 12 -88 1 0 -6 -5
-4 -10 4 -6 9 -10 11 -10 3 0 -7 -6 -10 -12 -8 -25 10 -110 11 -115 2 -3 -5
-9 -3 -14 4 -8 12 -10 12 -18 0 -7 -11 -9 -11 -14 0 -3 9 -6 9 -6 2 -1 -8 -10
-9 -31 -3 -21 6 -30 5 -30 -3 0 -8 -3 -8 -12 1 -16 16 -31 15 -22 0 5 -9 2 -9
-9 1 -14 11 -17 11 -17 0 0 -10 -3 -10 -12 -1 -16 16 -31 15 -22 0 5 -9 2 -9
-9 1 -13 10 -17 10 -17 1 0 -10 -3 -10 -15 0 -12 10 -15 10 -15 -1 0 -11 -2
-11 -10 1 -9 13 -11 13 -20 0 -8 -12 -10 -12 -10 -1 0 10 -3 11 -14 2 -11 -9
-15 -9 -19 1 -4 10 -7 10 -15 -1 -8 -11 -10 -11 -15 0 -5 12 -6 12 -6 0 -1
-11 -4 -11 -17 0 -13 10 -17 10 -25 -2 -7 -11 -9 -11 -9 0 0 10 -3 11 -14 2
-11 -9 -15 -9 -19 1 -4 10 -7 10 -15 -1 -8 -11 -10 -11 -15 0 -5 12 -6 12 -6
0 -1 -11 -4 -11 -17 0 -13 10 -17 10 -25 -2 -7 -11 -9 -11 -9 0 0 11 -3 11
-15 1 -8 -7 -15 -9 -15 -4 0 10 -172 10 -188 0 -6 -3 -13 0 -15 6 -4 10 -8 9
-16 -2 -8 -12 -11 -12 -11 -1 0 10 -3 11 -14 2 -11 -9 -15 -9 -19 1 -4 10 -8
10 -16 -2 -8 -12 -11 -12 -11 -1 0 11 -3 11 -15 1 -8 -7 -15 -9 -15 -4 0 11
-172 10 -189 0 -6 -4 -11 -4 -11 1 0 10 -172 9 -188 -1 -7 -4 -12 -4 -12 1 0
10 -93 9 -109 -1 -6 -4 -11 -4 -11 1 0 10 -143 9 -160 -2 -7 -5 -11 -4 -7 1 7
13 -306 12 -315 -1 -5 -7 -8 -7 -8 0 0 14 -110 14 -110 1 0 -7 -3 -8 -8 -1 -6
9 -254 15 -294 7z"/>
</g>
</svg>
